<?xml version="1.0" encoding="UTF-8" standalone="no"?>
<svg
   width="38.287121"
   height="39.589886"
   viewBox="0 0 28.715341 29.692414"
   version="1.1"
   id="svg4262"
   sodipodi:docname="MdiGrid.svg"
   inkscape:version="1.2.2 (732a01da63, 2022-12-09)"
   xmlns:inkscape="http://www.inkscape.org/namespaces/inkscape"
   xmlns:sodipodi="http://sodipodi.sourceforge.net/DTD/sodipodi-0.dtd"
   xmlns="http://www.w3.org/2000/svg"
   xmlns:svg="http://www.w3.org/2000/svg">
  <defs
     id="defs4266" />
  <sodipodi:namedview
     id="namedview4264"
     pagecolor="#ffffff"
     bordercolor="#000000"
     borderopacity="0.25"
     inkscape:showpageshadow="2"
     inkscape:pageopacity="0.0"
     inkscape:pagecheckerboard="0"
     inkscape:deskcolor="#d1d1d1"
     showgrid="false"
     showguides="true"
     inkscape:zoom="5.6568542"
     inkscape:cx="-101.82338"
     inkscape:cy="51.618795"
     inkscape:window-width="1920"
     inkscape:window-height="1017"
     inkscape:window-x="1912"
     inkscape:window-y="-8"
     inkscape:window-maximized="1"
     inkscape:current-layer="g1276">
    <sodipodi:guide
       position="105.38694,97.342151"
       orientation="-0.70710678,-0.70710678"
       id="guide6532"
       inkscape:locked="false" />
    <sodipodi:guide
       position="114.77586,96.439154"
       orientation="-0.70710678,-0.70710678"
       id="guide7320"
       inkscape:locked="false" />
    <sodipodi:guide
       position="165.9755,85.512414"
       orientation="0,-1"
       id="guide7346"
       inkscape:locked="false" />
    <sodipodi:guide
       position="165.9755,58.892711"
       orientation="0,-1"
       id="guide7348"
       inkscape:locked="false" />
    <sodipodi:guide
       position="135.37256,72.84752"
       orientation="0,-1"
       id="guide7404"
       inkscape:locked="false" />
    <sodipodi:guide
       position="173.04147,17.03906"
       orientation="1,0"
       id="guide381"
       inkscape:locked="false" />
    <sodipodi:guide
       position="132.22844,8.0333059"
       orientation="-0.70710678,-0.70710678"
       id="guide392"
       inkscape:locked="false" />
    <sodipodi:guide
       position="54.749335,99.829345"
       orientation="1,0"
       id="guide393"
       inkscape:locked="false" />
    <sodipodi:guide
       position="79.156948,99.871722"
       orientation="1,0"
       id="guide397"
       inkscape:locked="false" />
    <sodipodi:guide
       position="42.366039,15.334017"
       orientation="0,-1"
       id="guide2447"
       inkscape:locked="false" />
  </sodipodi:namedview>
  <g
     id="g1276"
     transform="translate(-6.6830514,39.76224)"
     style="fill:#000000"
     inkscape:export-filename="diagrid-h.png"
     inkscape:export-xdpi="96"
     inkscape:export-ydpi="96">
    <path
       id="path2385"
       style="color:#000000;fill:#000000;-inkscape-stroke:none;paint-order:fill markers stroke"
       d="m 16.73188,-39.762242 -4.309571,4.308106 -1.431152,1.431152 -4.3066407,4.308105 -0.00146,0.0015 v 8.617676 8.671875 2.354004 h 17.6909177 1.949707 9.074707 v -11.024414 -8.617676 l -5.740722,-5.740723 -4.309571,-4.30957 -4.308105,4.308106 z m 0,2.862305 2.876953,2.876953 -0.0015,0.0015 v 0.0015 l -0.862793,0.862793 -0.354492,0.353027 -0.221192,0.221191 -0.958008,0.959473 -0.480468,0.479004 -2.875489,-2.878418 z m 8.61621,0.0015 2.876954,2.878418 -2.876954,2.874023 -2.875488,-2.876953 z m -12.925781,4.308105 2.878418,2.876953 -0.0015,0.0015 -2.876953,2.875488 -2.8769529,-2.876953 z m 8.616211,0.0015 2.876953,2.876953 -2.875488,2.875488 -2.876953,-2.876953 z m 8.617676,0 2.878418,2.876953 -2.875488,2.875488 -2.876953,-2.876953 z m -12.925781,4.308105 2.876953,2.876954 -2.876953,2.875488 -2.875489,-2.876953 z m 8.617675,0.0015 2.875489,2.875489 -1.916016,1.91748 -0.959473,0.958008 -2.875488,-2.876953 z m -16.7167964,0.515625 2.3598634,2.358399 -0.0015,0.0015 -2.3583984,2.359863 z m 24.8173824,0.0015 v 4.718262 l -2.359863,-2.359863 0.0015,-0.0015 z m -12.408691,3.789551 2.875488,2.876953 -2.875488,2.875488 -2.876953,-2.875488 z m 8.617676,0 2.876953,2.876953 -2.878418,2.876953 -2.128418,-2.128418 -0.74707,-0.74707 v -0.0015 l 2.875488,-2.875488 z m -17.236817,0.0015 2.878418,2.876953 -2.876953,2.875488 -2.8769529,-2.876953 z m 4.309571,4.308105 2.876953,2.876953 v 0.0015 l -2.875488,2.875488 -2.876954,-2.876953 z m 8.617675,0 2.876954,2.876953 -2.876954,2.876953 -2.875488,-2.876953 z m -16.7167964,0.515625 2.3598634,2.361328 0.02637,0.02637 -2.3862304,2.387696 z m 24.8173824,0.0029 v 4.719726 l -2.359863,-2.361328 z m -3.739746,3.736816 3.386719,3.386719 h -6.771973 z m -17.311523,0.02637 0.0249,0.02637 3.335449,3.333984 H 9.0370553 Z m 8.642578,0.02783 3.33252,3.33252 h -6.66504 z" />
  </g>
</svg>
