<?xml version="1.0" encoding="UTF-8" standalone="no"?>
<svg
   width="46.816254"
   height="46.805847"
   viewBox="0 0 35.11219 35.104385"
   version="1.1"
   id="svg4262"
   sodipodi:docname="MdiGrid.svg"
   inkscape:version="1.2.2 (732a01da63, 2022-12-09)"
   xmlns:inkscape="http://www.inkscape.org/namespaces/inkscape"
   xmlns:sodipodi="http://sodipodi.sourceforge.net/DTD/sodipodi-0.dtd"
   xmlns="http://www.w3.org/2000/svg"
   xmlns:svg="http://www.w3.org/2000/svg">
  <defs
     id="defs4266" />
  <sodipodi:namedview
     id="namedview4264"
     pagecolor="#ffffff"
     bordercolor="#000000"
     borderopacity="0.25"
     inkscape:showpageshadow="2"
     inkscape:pageopacity="0.0"
     inkscape:pagecheckerboard="0"
     inkscape:deskcolor="#d1d1d1"
     showgrid="false"
     showguides="true"
     inkscape:zoom="5.6568542"
     inkscape:cx="48.436815"
     inkscape:cy="20.506097"
     inkscape:window-width="1920"
     inkscape:window-height="1017"
     inkscape:window-x="1912"
     inkscape:window-y="-8"
     inkscape:window-maximized="1"
     inkscape:current-layer="svg4262">
    <sodipodi:guide
       position="14.342452,84.313219"
       orientation="-0.70710678,-0.70710678"
       id="guide6532"
       inkscape:locked="false" />
    <sodipodi:guide
       position="23.731368,83.410222"
       orientation="-0.70710678,-0.70710678"
       id="guide7320"
       inkscape:locked="false" />
    <sodipodi:guide
       position="74.931012,72.483482"
       orientation="0,-1"
       id="guide7346"
       inkscape:locked="false" />
    <sodipodi:guide
       position="74.931012,45.863779"
       orientation="0,-1"
       id="guide7348"
       inkscape:locked="false" />
    <sodipodi:guide
       position="114.28119,59.173631"
       orientation="0,-1"
       id="guide7404"
       inkscape:locked="false" />
    <sodipodi:guide
       position="170.85011,67.655584"
       orientation="0,-1"
       id="guide7688"
       inkscape:locked="false" />
    <sodipodi:guide
       position="104.38178,63.411932"
       orientation="1,0"
       id="guide7690"
       inkscape:locked="false" />
    <sodipodi:guide
       position="124.18061,63.411932"
       orientation="1,0"
       id="guide7692"
       inkscape:locked="false" />
    <sodipodi:guide
       position="168.0215,50.683859"
       orientation="0,-1"
       id="guide7694"
       inkscape:locked="false" />
    <sodipodi:guide
       position="156.70705,61.998358"
       orientation="1,0"
       id="guide7714"
       inkscape:locked="false" />
    <sodipodi:guide
       position="173.67873,61.998358"
       orientation="1,0"
       id="guide7716"
       inkscape:locked="false" />
    <sodipodi:guide
       position="64.381256,18.962597"
       orientation="1,0"
       id="guide7718"
       inkscape:locked="false" />
    <sodipodi:guide
       position="64.381256,27.448437"
       orientation="0,-1"
       id="guide7720"
       inkscape:locked="false" />
    <sodipodi:guide
       position="47.409577,21.791211"
       orientation="1,0"
       id="guide7722"
       inkscape:locked="false" />
    <sodipodi:guide
       position="55.895416,4.8209962"
       orientation="0,-1"
       id="guide7724"
       inkscape:locked="false" />
  </sodipodi:namedview>
  <path
     id="path8583"
     d="m 13.000431,0.02484412 a 2,2 0 0 0 -1.101562,0.561035 L 0.58587978,11.898867 a 2,2 0 0 0 0,2.828614 l 2.82861402,2.828613 -2.82861402,2.828613 a 2,2 0 0 0 0,2.828613 L 11.898869,34.526309 c 0.777817,0.777817 2.064938,0.763674 2.828613,0 l 2.828613,-2.828614 2.828614,2.828614 c 0.777817,0.777817 2.064938,0.763674 2.828613,0 L 34.52631,23.21332 a 2,2 0 0 0 0,-2.828613 l -2.828613,-2.828613 2.828613,-2.828613 a 2,2 0 0 0 0,-2.828614 L 23.213322,0.58587912 a 2,2 0 0 0 -2.828613,0 L 17.556095,3.4144921 14.727482,0.58587912 a 2,2 0 0 0 -1.727051,-0.561035 z m 0.313477,1.97460898 2.828613,2.828613 -2.828613,2.828614 -2.828613,-2.828614 z m 8.484375,0 2.828613,2.828613 -2.828613,2.828614 -2.828613,-2.828614 z M 9.0702558,6.2416411 11.898869,9.0702541 10.485295,10.485293 9.0702558,11.898867 6.2416418,9.0702541 Z m 8.4858392,0 2.828614,2.828613 -2.828614,2.8286129 -2.828613,-2.8286129 z m 8.48584,0 2.827149,2.828613 -2.827149,2.8286129 -2.828613,-2.8286129 z m -21.2138672,4.2436519 2.828613,2.828613 -1.768066,1.766602 -1.060547,1.060547 -2.828613,-2.827149 z m 8.4858402,0 2.828613,2.827148 v 0.0015 l -2.828613,2.827149 -2.828613,-2.827149 z m 8.484375,0 2.828613,2.828613 -2.828613,2.827149 -2.828613,-2.828614 z m 8.48584,0 2.828613,2.828613 -2.828613,2.827149 -2.828614,-2.827149 z m -21.2138672,4.242188 2.8286132,2.828613 -2.8286132,2.828613 -2.828614,-2.828613 z m 8.4858392,0 2.828614,2.828613 -2.828614,2.828613 -2.828613,-2.828613 z m 8.48584,0 2.827149,2.828613 -2.827149,2.828613 -2.828613,-2.828613 z m -21.2138672,4.242187 2.828613,2.828613 -2.828613,2.828614 -2.828613,-2.828614 z m 8.4843752,0 h 0.0015 l 2.828613,2.830078 -2.828613,2.827149 -2.828613,-2.828614 z m 8.48584,0 h 0.0015 l 2.827148,2.828613 -2.828613,2.828614 -2.828613,-2.827149 v -0.0015 z m 8.48584,0 2.828613,2.828613 -2.828613,2.828614 -2.828614,-2.828614 z M 9.0702558,23.21332 11.898869,26.041934 9.0702558,28.869082 6.2416418,26.041934 Z m 8.4858392,0 2.828614,2.828614 -2.828614,2.827148 -2.828613,-2.827148 z m 8.48584,0 2.827149,2.828614 -2.827149,2.827148 -2.828613,-2.827148 z m -12.728027,4.242188 2.828613,2.828613 -2.828613,2.828613 -2.828613,-2.828613 z m 8.484375,0 2.828613,2.828613 -2.828613,2.828613 -2.828613,-2.828613 z" />
</svg>
