<?xml version="1.0" encoding="UTF-8" standalone="no"?>
<svg
   width="22.628906"
   height="30.169922"
   viewBox="0 0 16.97168 22.627441"
   version="1.1"
   id="svg4262"
   sodipodi:docname="MdiGrid.svg"
   inkscape:version="1.2.2 (732a01da63, 2022-12-09)"
   xmlns:inkscape="http://www.inkscape.org/namespaces/inkscape"
   xmlns:sodipodi="http://sodipodi.sourceforge.net/DTD/sodipodi-0.dtd"
   xmlns="http://www.w3.org/2000/svg"
   xmlns:svg="http://www.w3.org/2000/svg">
  <defs
     id="defs4266" />
  <sodipodi:namedview
     id="namedview4264"
     pagecolor="#ffffff"
     bordercolor="#000000"
     borderopacity="0.25"
     inkscape:showpageshadow="2"
     inkscape:pageopacity="0.0"
     inkscape:pagecheckerboard="0"
     inkscape:deskcolor="#d1d1d1"
     showgrid="false"
     showguides="true"
     inkscape:zoom="5.6568542"
     inkscape:cx="48.436815"
     inkscape:cy="20.506097"
     inkscape:window-width="1920"
     inkscape:window-height="1017"
     inkscape:window-x="1912"
     inkscape:window-y="-8"
     inkscape:window-maximized="1"
     inkscape:current-layer="svg4262">
    <sodipodi:guide
       position="-33.067159,79.49219"
       orientation="-0.70710678,-0.70710678"
       id="guide6532"
       inkscape:locked="false" />
    <sodipodi:guide
       position="-23.678243,78.589193"
       orientation="-0.70710678,-0.70710678"
       id="guide7320"
       inkscape:locked="false" />
    <sodipodi:guide
       position="27.521402,67.662453"
       orientation="0,-1"
       id="guide7346"
       inkscape:locked="false" />
    <sodipodi:guide
       position="27.521402,41.04275"
       orientation="0,-1"
       id="guide7348"
       inkscape:locked="false" />
    <sodipodi:guide
       position="66.871582,54.352602"
       orientation="0,-1"
       id="guide7404"
       inkscape:locked="false" />
    <sodipodi:guide
       position="123.4405,62.834555"
       orientation="0,-1"
       id="guide7688"
       inkscape:locked="false" />
    <sodipodi:guide
       position="56.97217,58.590903"
       orientation="1,0"
       id="guide7690"
       inkscape:locked="false" />
    <sodipodi:guide
       position="76.770998,58.590903"
       orientation="1,0"
       id="guide7692"
       inkscape:locked="false" />
    <sodipodi:guide
       position="120.61189,45.86283"
       orientation="0,-1"
       id="guide7694"
       inkscape:locked="false" />
    <sodipodi:guide
       position="109.29744,57.177329"
       orientation="1,0"
       id="guide7714"
       inkscape:locked="false" />
    <sodipodi:guide
       position="126.26912,57.177329"
       orientation="1,0"
       id="guide7716"
       inkscape:locked="false" />
    <sodipodi:guide
       position="16.971646,14.141568"
       orientation="1,0"
       id="guide7718"
       inkscape:locked="false" />
    <sodipodi:guide
       position="16.971646,22.627408"
       orientation="0,-1"
       id="guide7720"
       inkscape:locked="false" />
    <sodipodi:guide
       position="-3.296875e-05,16.970182"
       orientation="1,0"
       id="guide7722"
       inkscape:locked="false" />
    <sodipodi:guide
       position="8.485806,-3.340625e-05"
       orientation="0,-1"
       id="guide7724"
       inkscape:locked="false" />
  </sodipodi:namedview>
  <path
     id="path7684"
     d="M 3.125e-8,-1.875e-7 2.828613,2.8286128 1.415039,4.2436528 3.125e-8,5.6572268 v 2.828613 L 2.828613,11.314453 3.125e-8,14.143067 V 16.97168 L 2.828613,19.800293 3.125e-8,22.627442 H 2.830078 l 1.413574,-1.413575 1.413575,1.413575 H 8.48584 L 5.657227,19.800293 8.48584,16.97168 11.314453,19.800293 8.48584,22.627442 h 2.828613 l 1.413574,-1.413575 1.413575,1.413575 H 16.97168 L 14.143066,19.800293 16.97168,16.97168 V 14.143067 L 14.143066,11.314453 16.97168,8.4858398 V 5.6572268 L 14.143066,2.8286128 16.97168,-1.875e-7 H 14.143066 L 12.728027,1.4150388 11.312988,-1.875e-7 H 8.48584 L 11.314453,2.8286128 8.48584,5.6572268 5.657227,2.8286128 8.48584,-1.875e-7 H 5.658691 L 4.243652,1.4150388 2.828613,-1.875e-7 Z M 4.243652,4.2436528 7.072266,7.0708008 v 0.0015 L 4.243652,9.8994488 1.415039,7.0723008 Z m 8.484375,0 2.828614,2.828613 -2.828614,2.827148 -2.828613,-2.828613 z M 8.48584,8.4858398 11.314453,11.314453 8.48584,14.143067 5.657227,11.314453 Z M 4.242187,12.728028 h 0.0015 l 2.828614,2.830078 -2.828614,2.827148 -2.828613,-2.828613 z m 8.48584,0 h 0.0015 l 2.827149,2.828613 -2.828614,2.828613 -2.828613,-2.827148 v -0.0015 z" />
</svg>
