<?xml version="1.0" encoding="UTF-8" standalone="no"?>
<svg
   viewBox="0 0 24.805538 24.805538"
   fill="currentColor"
   version="1.1"
   id="svg2066"
   sodipodi:docname="favicon.svg"
   width="24.805538"
   height="24.805538"
   inkscape:version="1.2.2 (732a01da63, 2022-12-09)"
   xmlns:inkscape="http://www.inkscape.org/namespaces/inkscape"
   xmlns:sodipodi="http://sodipodi.sourceforge.net/DTD/sodipodi-0.dtd"
   xmlns="http://www.w3.org/2000/svg"
   xmlns:svg="http://www.w3.org/2000/svg">
  <defs
     id="defs2070" />
  <sodipodi:namedview
     id="namedview2068"
     pagecolor="#ffffff"
     bordercolor="#000000"
     borderopacity="0.25"
     inkscape:showpageshadow="2"
     inkscape:pageopacity="0.0"
     inkscape:pagecheckerboard="0"
     inkscape:deskcolor="#d1d1d1"
     showgrid="false"
     showguides="true"
     inkscape:zoom="16"
     inkscape:cx="16.8125"
     inkscape:cy="19.1875"
     inkscape:window-width="1920"
     inkscape:window-height="1017"
     inkscape:window-x="1912"
     inkscape:window-y="-8"
     inkscape:window-maximized="1"
     inkscape:current-layer="svg2066">
    <sodipodi:guide
       position="12.402769,12.402769"
       orientation="1,0"
       id="guide2241"
       inkscape:locked="false" />
    <sodipodi:guide
       position="11.652769,11.222769"
       orientation="0,-1"
       id="guide2243"
       inkscape:locked="false" />
  </sodipodi:namedview>
  <circle
     style="fill:#ffffff;fill-opacity:1;stroke:none;stroke-width:0.499999;stroke-dasharray:none;paint-order:fill markers stroke"
     id="path2249"
     cx="12.402769"
     cy="12.402769"
     r="12.402769" />
  <path
     fill-rule="evenodd"
     d="m 12.024769,2.0047691 a 0.75,0.75 0 0 1 0.756,0 l 2.25,1.313 a 0.75,0.75 0 0 1 -0.756,1.295 l -1.872,-1.092 -1.872,1.092 a 0.75,0.75 0 1 1 -0.7559999,-1.295 z m -5.7239999,4.208 a 0.75,0.75 0 0 1 -0.27,1.025 l -1.14,0.665 1.14,0.665 a 0.75,0.75 0 1 1 -0.756,1.295 l -1.122,-0.654 v 0.9439999 a 0.75,0.75 0 0 1 -1.5,0 V 7.9027691 a 0.75,0.75 0 0 1 0.372,-0.648 l 2.25,-1.312 a 0.75,0.75 0 0 1 1.026,0.27 z m 12.2039999,0 a 0.75,0.75 0 0 1 1.026,-0.27 l 2.25,1.312 a 0.75,0.75 0 0 1 0.372,0.648 v 2.2499999 a 0.75,0.75 0 0 1 -1.5,0 V 9.2087691 l -1.122,0.654 a 0.75,0.75 0 1 1 -0.756,-1.295 l 1.14,-0.665 -1.14,-0.665 a 0.75,0.75 0 0 1 -0.27,-1.025 z M 9.5047691,11.462769 a 0.75,0.75 0 0 1 1.0259999,-0.27 l 1.872,1.092 1.872,-1.092 a 0.75,0.75 0 1 1 0.756,1.295 l -1.878,1.096 v 1.819 a 0.75,0.75 0 0 1 -1.5,0 v -1.82 l -1.8779999,-1.095 a 0.75,0.75 0 0 1 -0.27,-1.025 z m -6.102,2.44 a 0.75,0.75 0 0 1 0.75,0.75 v 1.82 l 1.878,1.095 a 0.75,0.75 0 1 1 -0.756,1.295 l -2.25,-1.312 a 0.75,0.75 0 0 1 -0.372,-0.648 v -2.25 a 0.75,0.75 0 0 1 0.75,-0.75 z m 17.9999999,0 a 0.75,0.75 0 0 1 0.75,0.75 v 2.25 a 0.75,0.75 0 0 1 -0.372,0.648 l -2.25,1.312 a 0.75,0.75 0 1 1 -0.756,-1.295 l 1.878,-1.096 v -1.819 a 0.75,0.75 0 0 1 0.75,-0.75 z m -9,5.25 a 0.75,0.75 0 0 1 0.75,0.75 v 0.944 l 1.122,-0.654 a 0.75,0.75 0 1 1 0.756,1.295 l -2.25,1.313 a 0.75,0.75 0 0 1 -0.756,0 l -2.2499999,-1.313 a 0.75,0.75 0 1 1 0.7559999,-1.295 l 1.122,0.654 v -0.944 a 0.75,0.75 0 0 1 0.75,-0.75 z"
     clip-rule="evenodd"
     id="path2064" />
</svg>
