<?xml version="1.0" encoding="UTF-8" standalone="no"?>
<svg
   width="35.499844"
   height="46.781555"
   viewBox="0 0 26.624883 35.086166"
   version="1.1"
   id="svg4262"
   sodipodi:docname="MdiGrid.svg"
   inkscape:version="1.2.2 (732a01da63, 2022-12-09)"
   xmlns:inkscape="http://www.inkscape.org/namespaces/inkscape"
   xmlns:sodipodi="http://sodipodi.sourceforge.net/DTD/sodipodi-0.dtd"
   xmlns="http://www.w3.org/2000/svg"
   xmlns:svg="http://www.w3.org/2000/svg">
  <defs
     id="defs4266" />
  <sodipodi:namedview
     id="namedview4264"
     pagecolor="#ffffff"
     bordercolor="#000000"
     borderopacity="0.25"
     inkscape:showpageshadow="2"
     inkscape:pageopacity="0.0"
     inkscape:pagecheckerboard="0"
     inkscape:deskcolor="#d1d1d1"
     showgrid="false"
     showguides="true"
     inkscape:zoom="5.6568542"
     inkscape:cx="-101.82338"
     inkscape:cy="51.618795"
     inkscape:window-width="1920"
     inkscape:window-height="1017"
     inkscape:window-x="1912"
     inkscape:window-y="-8"
     inkscape:window-maximized="1"
     inkscape:current-layer="g1276">
    <sodipodi:guide
       position="-21.184792,99.545473"
       orientation="-0.70710678,-0.70710678"
       id="guide6532"
       inkscape:locked="false" />
    <sodipodi:guide
       position="-11.795876,98.642476"
       orientation="-0.70710678,-0.70710678"
       id="guide7320"
       inkscape:locked="false" />
    <sodipodi:guide
       position="39.403769,87.715736"
       orientation="0,-1"
       id="guide7346"
       inkscape:locked="false" />
    <sodipodi:guide
       position="39.403769,61.096033"
       orientation="0,-1"
       id="guide7348"
       inkscape:locked="false" />
    <sodipodi:guide
       position="8.8008237,75.050842"
       orientation="0,-1"
       id="guide7404"
       inkscape:locked="false" />
    <sodipodi:guide
       position="46.46974,19.242382"
       orientation="1,0"
       id="guide381"
       inkscape:locked="false" />
    <sodipodi:guide
       position="5.6567077,10.236628"
       orientation="-0.70710678,-0.70710678"
       id="guide392"
       inkscape:locked="false" />
    <sodipodi:guide
       position="-71.8224,102.03267"
       orientation="1,0"
       id="guide393"
       inkscape:locked="false" />
    <sodipodi:guide
       position="-47.414787,102.07504"
       orientation="1,0"
       id="guide397"
       inkscape:locked="false" />
    <sodipodi:guide
       position="-84.205696,17.537339"
       orientation="0,-1"
       id="guide2447"
       inkscape:locked="false" />
  </sodipodi:namedview>
  <path
     id="path377"
     style="fill:#000000"
     d="M 13.312442,-9.0332031e-7 C 12.799924,-2.9990332e-4 12.286295,0.1911891 11.898868,0.5786121 L 0.58587939,11.891601 a 2,2 0 0 0 0,2.828613 l 2.82861331,2.828613 -2.82861331,2.828614 a 2,2 0 0 0 0,2.828613 L 11.898868,34.519042 a 2,2 0 0 0 1.101562,0.561035 2,2 0 0 0 0.312012,0 2,2 0 0 0 0.312012,0 2,2 0 0 0 1.101562,-0.561035 L 26.039004,23.206054 a 2,2 0 0 0 0,-2.828613 l -2.828613,-2.828614 2.828613,-2.828613 a 2,2 0 0 0 0,-2.828613 L 14.726016,0.5786121 C 14.338589,0.1911891 13.824957,-2.9990332e-4 13.312442,-9.0332031e-7 Z m 0,1.99365200332031 2.827148,2.827149 -2.827148,2.827148 -2.827148,-2.827148 z M 9.0702537,6.2358391 11.898868,9.0629871 9.0702537,11.891601 6.2416407,9.0629871 Z m 8.4843753,0 2.828614,2.827148 -2.828614,2.8286139 -2.828613,-2.8286139 z M 4.8280667,10.478027 7.6566797,13.30664 4.8280667,16.135253 1.9994536,13.30664 Z m 16.9687503,0 2.828613,2.828613 -2.828613,2.828613 -2.828613,-2.828613 z m -8.484375,0.0015 2.827148,2.827149 -2.827148,2.828613 -2.827148,-2.828613 z m -4.2421883,4.240723 2.8286143,2.828613 -2.8286143,2.828614 -2.828613,-2.828614 z m 8.4843753,0 2.828614,2.828613 -2.828614,2.828614 -2.828613,-2.828614 z m -12.7265623,4.243652 1.060547,1.060547 1.768066,1.766602 -2.828613,2.828613 -2.8286131,-2.828613 z m 16.9687503,0 2.828613,2.827149 -2.828613,2.828613 -2.828613,-2.828613 1.768066,-1.766602 z m -8.484375,0.0015 2.827148,2.825684 -2.827148,2.827148 -2.827148,-2.827148 z m -4.2421883,4.240723 1.4150403,1.413574 1.413574,1.415039 -2.8286143,2.828613 -2.828613,-2.828613 z m 8.4843753,0 2.828614,2.828613 -2.828614,2.828613 -2.828613,-2.828613 1.413574,-1.415039 z m -4.242187,4.243652 2.827148,2.827149 -2.827148,2.827148 -2.827148,-2.827148 z" />
</svg>
