<?xml version="1.0" encoding="UTF-8" standalone="no"?>
<svg
   width="32"
   height="32"
   viewBox="0 0 24 24"
   version="1.1"
   id="svg4262"
   sodipodi:docname="MdiGrid.svg"
   inkscape:version="1.2.2 (732a01da63, 2022-12-09)"
   xmlns:inkscape="http://www.inkscape.org/namespaces/inkscape"
   xmlns:sodipodi="http://sodipodi.sourceforge.net/DTD/sodipodi-0.dtd"
   xmlns="http://www.w3.org/2000/svg"
   xmlns:svg="http://www.w3.org/2000/svg">
  <defs
     id="defs4266">
    <inkscape:path-effect
       effect="fillet_chamfer"
       id="path-effect1292"
       is_visible="true"
       lpeversion="1"
       nodesatellites_param="F,0,0,1,0,0,0,1 @ F,0,0,1,0,0,0,1 @ F,0,0,1,0,0,0,1 @ F,0,0,1,0,0,0,1 @ F,0,0,1,0,0,0,1 @ F,0,0,1,0,0,0,1 @ F,0,0,1,0,0,0,1 @ F,0,0,1,0,0,0,1 @ F,0,0,1,0,0,0,1 @ F,0,0,1,0,0,0,1 @ F,0,0,1,0,0,0,1 @ F,0,0,1,0,0,0,1 @ F,0,0,1,0,0,0,1 @ F,0,0,1,0,0,0,1 @ F,0,0,1,0,0,0,1 @ F,0,0,1,0,0,0,1 @ F,0,0,1,0,0,0,1 | F,0,0,1,0,0,0,1 @ F,0,0,1,0,0,0,1 @ F,0,0,1,0,0,0,1 @ F,0,0,1,0,0,0,1 | F,0,0,1,0,0,0,1 @ F,0,0,1,0,0,0,1 @ F,0,0,1,0,0,0,1 @ F,0,0,1,0,0,0,1 | F,0,0,1,0,0,0,1 @ F,0,0,1,0,0,0,1 @ F,0,0,1,0,0,0,1 @ F,0,0,1,0,0,0,1 | F,0,0,1,0,0,0,1 @ F,0,0,1,0,0,0,1 @ F,0,0,1,0,0,0,1 @ F,0,0,1,0,0,0,1 | F,0,0,1,0,0,0,1 @ F,0,0,1,0,0,0,1 @ F,0,0,1,0,0,0,1 @ F,0,0,1,0,0,0,1 | F,0,0,1,0,0,0,1 @ F,0,0,1,0,0,0,1 @ F,0,0,1,0,0,0,1 @ F,0,0,1,0,0,0,1"
       unit="px"
       method="auto"
       mode="F"
       radius="0"
       chamfer_steps="1"
       flexible="false"
       use_knot_distance="true"
       apply_no_radius="true"
       apply_with_radius="true"
       only_selected="false"
       hide_knots="false" />
    <inkscape:path-effect
       effect="fillet_chamfer"
       id="path-effect1288"
       is_visible="true"
       lpeversion="1"
       nodesatellites_param="F,0,0,1,0,0,0,1 @ F,0,0,1,0,0,0,1 @ F,0,0,1,0,0,0,1 @ F,0,0,1,0,0,0,1 @ F,0,0,1,0,0,0,1 @ F,0,0,1,0,0,0,1 @ F,0,0,1,0,0,0,1 @ F,0,0,1,0,0,0,1 @ F,0,0,1,0,0,0,1 @ F,0,0,1,0,0,0,1 @ F,0,0,1,0,0,0,1 @ F,0,0,1,0,0,0,1 @ F,0,0,1,0,0,0,1 @ F,0,0,1,0,0,0,1 @ F,0,0,1,0,0,0,1 @ F,0,0,1,0,0,0,1 @ F,0,0,1,0,0,0,1 | F,0,0,1,0,0,0,1 @ F,0,0,1,0,0,0,1 @ F,0,0,1,0,0,0,1 @ F,0,0,1,0,0,0,1 | F,0,0,1,0,0,0,1 @ F,0,0,1,0,0,0,1 @ F,0,0,1,0,0,0,1 @ F,0,0,1,0,0,0,1 | F,0,0,1,0,0,0,1 @ F,0,0,1,0,0,0,1 @ F,0,0,1,0,0,0,1 @ F,0,0,1,0,0,0,1 | F,0,0,1,0,0,0,1 @ F,0,0,1,0,0,0,1 @ F,0,0,1,0,0,0,1 @ F,0,0,1,0,0,0,1 | F,0,0,1,0,0,0,1 @ F,0,0,1,0,0,0,1 @ F,0,0,1,0,0,0,1 @ F,0,0,1,0,0,0,1 | F,0,0,1,0,0,0,1 @ F,0,0,1,0,0,0,1 @ F,0,0,1,0,0,0,1 @ F,0,0,1,0,0,0,1"
       unit="px"
       method="auto"
       mode="F"
       radius="0"
       chamfer_steps="1"
       flexible="false"
       use_knot_distance="true"
       apply_no_radius="true"
       apply_with_radius="true"
       only_selected="false"
       hide_knots="false" />
    <inkscape:path-effect
       effect="fillet_chamfer"
       id="path-effect1284"
       is_visible="true"
       lpeversion="1"
       nodesatellites_param="F,0,0,1,0,0,0,1 @ F,0,0,1,0,0,0,1 @ F,0,0,1,0,0,0,1 @ F,0,0,1,0,0,0,1 @ F,0,0,1,0,0,0,1 @ F,0,0,1,0,0,0,1 @ F,0,0,1,0,0,0,1 @ F,0,0,1,0,0,0,1 @ F,0,0,1,0,0,0,1 @ F,0,0,1,0,0,0,1 @ F,0,0,1,0,0,0,1 @ F,0,0,1,0,0,0,1 @ F,0,0,1,0,0,0,1 @ F,0,0,1,0,0,0,1 @ F,0,0,1,0,0,0,1 @ F,0,0,1,0,0,0,1 @ F,0,0,1,0,0,0,1 | F,0,0,1,0,0,0,1 @ F,0,0,1,0,0,0,1 @ F,0,0,1,0,0,0,1 @ F,0,0,1,0,0,0,1 | F,0,0,1,0,0,0,1 @ F,0,0,1,0,0,0,1 @ F,0,0,1,0,0,0,1 @ F,0,0,1,0,0,0,1 | F,0,0,1,0,0,0,1 @ F,0,0,1,0,0,0,1 @ F,0,0,1,0,0,0,1 @ F,0,0,1,0,0,0,1 | F,0,0,1,0,0,0,1 @ F,0,0,1,0,0,0,1 @ F,0,0,1,0,0,0,1 @ F,0,0,1,0,0,0,1 | F,0,0,1,0,0,0,1 @ F,0,0,1,0,0,0,1 @ F,0,0,1,0,0,0,1 @ F,0,0,1,0,0,0,1 | F,0,0,1,0,0,0,1 @ F,0,0,1,0,0,0,1 @ F,0,0,1,0,0,0,1 @ F,0,0,1,0,0,0,1"
       unit="px"
       method="auto"
       mode="F"
       radius="0"
       chamfer_steps="1"
       flexible="false"
       use_knot_distance="true"
       apply_no_radius="true"
       apply_with_radius="true"
       only_selected="false"
       hide_knots="false" />
    <inkscape:path-effect
       effect="fillet_chamfer"
       id="path-effect1280"
       is_visible="true"
       lpeversion="1"
       nodesatellites_param="F,0,0,1,0,0,0,1 @ F,0,0,1,0,0,0,1 @ F,0,0,1,0,0,0,1 @ F,0,0,1,0,0,0,1 @ F,0,0,1,0,0,0,1 @ F,0,0,1,0,0,0,1 @ F,0,0,1,0,0,0,1 @ F,0,0,1,0,0,0,1 @ F,0,0,1,0,0,0,1 @ F,0,0,1,0,0,0,1 @ F,0,0,1,0,0,0,1 @ F,0,0,1,0,0,0,1 @ F,0,0,1,0,0,0,1 @ F,0,0,1,0,0,0,1 @ F,0,0,1,0,0,0,1 @ F,0,0,1,0,0,0,1 @ F,0,0,1,0,0,0,1 | F,0,0,1,0,0,0,1 @ F,0,0,1,0,0,0,1 @ F,0,0,1,0,0,0,1 @ F,0,0,1,0,0,0,1 | F,0,0,1,0,0,0,1 @ F,0,0,1,0,0,0,1 @ F,0,0,1,0,0,0,1 @ F,0,0,1,0,0,0,1 | F,0,0,1,0,0,0,1 @ F,0,0,1,0,0,0,1 @ F,0,0,1,0,0,0,1 @ F,0,0,1,0,0,0,1 | F,0,0,1,0,0,0,1 @ F,0,0,1,0,0,0,1 @ F,0,0,1,0,0,0,1 @ F,0,0,1,0,0,0,1 | F,0,0,1,0,0,0,1 @ F,0,0,1,0,0,0,1 @ F,0,0,1,0,0,0,1 @ F,0,0,1,0,0,0,1 | F,0,0,1,0,0,0,1 @ F,0,0,1,0,0,0,1 @ F,0,0,1,0,0,0,1 @ F,0,0,1,0,0,0,1"
       unit="px"
       method="auto"
       mode="F"
       radius="0"
       chamfer_steps="1"
       flexible="false"
       use_knot_distance="true"
       apply_no_radius="true"
       apply_with_radius="true"
       only_selected="false"
       hide_knots="false" />
    <inkscape:path-effect
       effect="fillet_chamfer"
       id="path-effect7344"
       is_visible="true"
       lpeversion="1"
       nodesatellites_param="F,0,0,1,0,1.2114684,0,4 @ F,0,0,1,0,2,0,4 @ F,0,0,1,0,2,0,4 @ F,0,0,1,0,2,0,4 @ F,0,0,1,0,1.189963,0,4 | F,0,0,1,0,0,0,4 @ F,0,0,1,0,0,0,4 @ F,0,0,1,0,0,0,4 @ F,0,0,1,0,0,0,4"
       unit="px"
       method="arc"
       mode="F"
       radius="0"
       chamfer_steps="4"
       flexible="false"
       use_knot_distance="false"
       apply_no_radius="false"
       apply_with_radius="false"
       only_selected="false"
       hide_knots="false" />
    <inkscape:path-effect
       effect="fillet_chamfer"
       id="path-effect6375"
       is_visible="true"
       lpeversion="1"
       nodesatellites_param="F,0,0,1,0,1.2114684,0,4 @ F,0,0,1,0,2,0,4 @ F,0,0,1,0,2,0,4 @ F,0,0,1,0,2,0,4 @ F,0,0,1,0,1.189963,0,4 | F,0,0,1,0,0,0,4 @ F,0,0,1,0,0,0,4 @ F,0,0,1,0,0,0,4 @ F,0,0,1,0,0,0,4"
       unit="px"
       method="arc"
       mode="F"
       radius="0"
       chamfer_steps="4"
       flexible="false"
       use_knot_distance="false"
       apply_no_radius="false"
       apply_with_radius="false"
       only_selected="false"
       hide_knots="false" />
    <inkscape:path-effect
       effect="fillet_chamfer"
       id="path-effect6316"
       is_visible="true"
       lpeversion="1"
       nodesatellites_param="F,0,0,1,0,2,0,4 @ F,0,0,1,0,2,0,4 @ F,0,0,1,0,2,0,4 @ F,0,0,1,0,2,0,4 @ F,0,0,1,0,2,0,4 | F,0,0,1,0,0,0,4 @ F,0,1,1,0,0,0,4 @ F,0,0,1,0,0,0,4 @ F,0,0,1,0,0,0,4"
       unit="px"
       method="arc"
       mode="F"
       radius="0"
       chamfer_steps="4"
       flexible="false"
       use_knot_distance="false"
       apply_no_radius="false"
       apply_with_radius="false"
       only_selected="false"
       hide_knots="false" />
    <inkscape:path-effect
       effect="fillet_chamfer"
       id="path-effect1179"
       is_visible="true"
       lpeversion="1"
       nodesatellites_param="F,0,0,1,0,0,0,1 @ F,0,0,1,0,0,0,1 @ F,0,0,1,0,0,0,1 @ F,0,0,1,0,0,0,1 @ F,0,0,1,0,0,0,1 @ F,0,0,1,0,0,0,1 @ F,0,0,1,0,0,0,1 @ F,0,0,1,0,0,0,1 @ F,0,0,1,0,0,0,1 @ F,0,0,1,0,0,0,1 @ F,0,0,1,0,0,0,1 @ F,0,0,1,0,0,0,1 @ F,0,0,1,0,0,0,1 @ F,0,0,1,0,0,0,1 @ F,0,0,1,0,0,0,1 @ F,0,0,1,0,0,0,1 @ F,0,0,1,0,0,0,1 | F,0,0,1,0,0,0,1 @ F,0,0,1,0,0,0,1 @ F,0,0,1,0,0,0,1 @ F,0,0,1,0,0,0,1 | F,0,0,1,0,0,0,1 @ F,0,0,1,0,0,0,1 @ F,0,0,1,0,0,0,1 @ F,0,0,1,0,0,0,1 | F,0,0,1,0,0,0,1 @ F,0,0,1,0,0,0,1 @ F,0,0,1,0,0,0,1 @ F,0,0,1,0,0,0,1 | F,0,0,1,0,0,0,1 @ F,0,0,1,0,0,0,1 @ F,0,0,1,0,0,0,1 @ F,0,0,1,0,0,0,1 | F,0,0,1,0,0,0,1 @ F,0,0,1,0,0,0,1 @ F,0,0,1,0,0,0,1 @ F,0,0,1,0,0,0,1 | F,0,0,1,0,0,0,1 @ F,0,0,1,0,0,0,1 @ F,0,0,1,0,0,0,1 @ F,0,0,1,0,0,0,1"
       unit="px"
       method="auto"
       mode="F"
       radius="0"
       chamfer_steps="1"
       flexible="false"
       use_knot_distance="true"
       apply_no_radius="true"
       apply_with_radius="true"
       only_selected="false"
       hide_knots="false" />
    <inkscape:path-effect
       effect="fillet_chamfer"
       id="path-effect1185"
       is_visible="true"
       lpeversion="1"
       nodesatellites_param="F,0,0,1,0,0,0,1 @ F,0,0,1,0,0,0,1 @ F,0,0,1,0,0,0,1 @ F,0,0,1,0,0,0,1 @ F,0,0,1,0,0,0,1 @ F,0,0,1,0,0,0,1 @ F,0,0,1,0,0,0,1 @ F,0,0,1,0,0,0,1 @ F,0,0,1,0,0,0,1 @ F,0,0,1,0,0,0,1 @ F,0,0,1,0,0,0,1 @ F,0,0,1,0,0,0,1 @ F,0,0,1,0,0,0,1 @ F,0,0,1,0,0,0,1 @ F,0,0,1,0,0,0,1 @ F,0,0,1,0,0,0,1 @ F,0,0,1,0,0,0,1 | F,0,0,1,0,0,0,1 @ F,0,0,1,0,0,0,1 @ F,0,0,1,0,0,0,1 @ F,0,0,1,0,0,0,1 | F,0,0,1,0,0,0,1 @ F,0,0,1,0,0,0,1 @ F,0,0,1,0,0,0,1 @ F,0,0,1,0,0,0,1 | F,0,0,1,0,0,0,1 @ F,0,0,1,0,0,0,1 @ F,0,0,1,0,0,0,1 @ F,0,0,1,0,0,0,1 | F,0,0,1,0,0,0,1 @ F,0,0,1,0,0,0,1 @ F,0,0,1,0,0,0,1 @ F,0,0,1,0,0,0,1 | F,0,0,1,0,0,0,1 @ F,0,0,1,0,0,0,1 @ F,0,0,1,0,0,0,1 @ F,0,0,1,0,0,0,1 | F,0,0,1,0,0,0,1 @ F,0,0,1,0,0,0,1 @ F,0,0,1,0,0,0,1 @ F,0,0,1,0,0,0,1"
       unit="px"
       method="auto"
       mode="F"
       radius="0"
       chamfer_steps="1"
       flexible="false"
       use_knot_distance="true"
       apply_no_radius="true"
       apply_with_radius="true"
       only_selected="false"
       hide_knots="false" />
    <inkscape:path-effect
       effect="fillet_chamfer"
       id="path-effect1191"
       is_visible="true"
       lpeversion="1"
       nodesatellites_param="F,0,0,1,0,0,0,1 @ F,0,0,1,0,0,0,1 @ F,0,0,1,0,0,0,1 @ F,0,0,1,0,0,0,1 @ F,0,0,1,0,0,0,1 @ F,0,0,1,0,0,0,1 @ F,0,0,1,0,0,0,1 @ F,0,0,1,0,0,0,1 @ F,0,0,1,0,0,0,1 @ F,0,0,1,0,0,0,1 @ F,0,0,1,0,0,0,1 @ F,0,0,1,0,0,0,1 @ F,0,0,1,0,0,0,1 @ F,0,0,1,0,0,0,1 @ F,0,0,1,0,0,0,1 @ F,0,0,1,0,0,0,1 @ F,0,0,1,0,0,0,1 | F,0,0,1,0,0,0,1 @ F,0,0,1,0,0,0,1 @ F,0,0,1,0,0,0,1 @ F,0,0,1,0,0,0,1 | F,0,0,1,0,0,0,1 @ F,0,0,1,0,0,0,1 @ F,0,0,1,0,0,0,1 @ F,0,0,1,0,0,0,1 | F,0,0,1,0,0,0,1 @ F,0,0,1,0,0,0,1 @ F,0,0,1,0,0,0,1 @ F,0,0,1,0,0,0,1 | F,0,0,1,0,0,0,1 @ F,0,0,1,0,0,0,1 @ F,0,0,1,0,0,0,1 @ F,0,0,1,0,0,0,1 | F,0,0,1,0,0,0,1 @ F,0,0,1,0,0,0,1 @ F,0,0,1,0,0,0,1 @ F,0,0,1,0,0,0,1 | F,0,0,1,0,0,0,1 @ F,0,0,1,0,0,0,1 @ F,0,0,1,0,0,0,1 @ F,0,0,1,0,0,0,1"
       unit="px"
       method="auto"
       mode="F"
       radius="0"
       chamfer_steps="1"
       flexible="false"
       use_knot_distance="true"
       apply_no_radius="true"
       apply_with_radius="true"
       only_selected="false"
       hide_knots="false" />
    <inkscape:path-effect
       effect="fillet_chamfer"
       id="path-effect1197"
       is_visible="true"
       lpeversion="1"
       nodesatellites_param="F,0,0,1,0,0,0,1 @ F,0,0,1,0,0,0,1 @ F,0,0,1,0,0,0,1 @ F,0,0,1,0,0,0,1 @ F,0,0,1,0,0,0,1 @ F,0,0,1,0,0,0,1 @ F,0,0,1,0,0,0,1 @ F,0,0,1,0,0,0,1 @ F,0,0,1,0,0,0,1 @ F,0,0,1,0,0,0,1 @ F,0,0,1,0,0,0,1 @ F,0,0,1,0,0,0,1 @ F,0,0,1,0,0,0,1 @ F,0,0,1,0,0,0,1 @ F,0,0,1,0,0,0,1 @ F,0,0,1,0,0,0,1 @ F,0,0,1,0,0,0,1 | F,0,0,1,0,0,0,1 @ F,0,0,1,0,0,0,1 @ F,0,0,1,0,0,0,1 @ F,0,0,1,0,0,0,1 | F,0,0,1,0,0,0,1 @ F,0,0,1,0,0,0,1 @ F,0,0,1,0,0,0,1 @ F,0,0,1,0,0,0,1 | F,0,0,1,0,0,0,1 @ F,0,0,1,0,0,0,1 @ F,0,0,1,0,0,0,1 @ F,0,0,1,0,0,0,1 | F,0,0,1,0,0,0,1 @ F,0,0,1,0,0,0,1 @ F,0,0,1,0,0,0,1 @ F,0,0,1,0,0,0,1 | F,0,0,1,0,0,0,1 @ F,0,0,1,0,0,0,1 @ F,0,0,1,0,0,0,1 @ F,0,0,1,0,0,0,1 | F,0,0,1,0,0,0,1 @ F,0,0,1,0,0,0,1 @ F,0,0,1,0,0,0,1 @ F,0,0,1,0,0,0,1"
       unit="px"
       method="auto"
       mode="F"
       radius="0"
       chamfer_steps="1"
       flexible="false"
       use_knot_distance="true"
       apply_no_radius="true"
       apply_with_radius="true"
       only_selected="false"
       hide_knots="false" />
  </defs>
  <sodipodi:namedview
     id="namedview4264"
     pagecolor="#ffffff"
     bordercolor="#000000"
     borderopacity="0.25"
     inkscape:showpageshadow="2"
     inkscape:pageopacity="0.0"
     inkscape:pagecheckerboard="0"
     inkscape:deskcolor="#d1d1d1"
     showgrid="false"
     showguides="true"
     inkscape:zoom="5.6568542"
     inkscape:cx="-101.82338"
     inkscape:cy="51.618795"
     inkscape:window-width="1920"
     inkscape:window-height="1017"
     inkscape:window-x="1912"
     inkscape:window-y="-8"
     inkscape:window-maximized="1"
     inkscape:current-layer="g1276">
    <sodipodi:guide
       position="-15.985616,36.494631"
       orientation="-0.70710678,-0.70710678"
       id="guide6532"
       inkscape:locked="false" />
    <sodipodi:guide
       position="-6.5967,35.591634"
       orientation="-0.70710678,-0.70710678"
       id="guide7320"
       inkscape:locked="false" />
    <sodipodi:guide
       position="44.602945,24.664894"
       orientation="0,-1"
       id="guide7346"
       inkscape:locked="false" />
    <sodipodi:guide
       position="44.602945,-1.954809"
       orientation="0,-1"
       id="guide7348"
       inkscape:locked="false" />
    <sodipodi:guide
       position="14,12"
       orientation="0,-1"
       id="guide7404"
       inkscape:locked="false" />
    <sodipodi:guide
       position="51.668916,-43.80846"
       orientation="1,0"
       id="guide381"
       inkscape:locked="false" />
    <sodipodi:guide
       position="10.855884,-52.814214"
       orientation="-0.70710678,-0.70710678"
       id="guide392"
       inkscape:locked="false" />
    <sodipodi:guide
       position="-66.623224,38.981825"
       orientation="1,0"
       id="guide393"
       inkscape:locked="false" />
    <sodipodi:guide
       position="-42.215611,39.024202"
       orientation="1,0"
       id="guide397"
       inkscape:locked="false" />
  </sodipodi:namedview>
  <path
     fill="currentColor"
     d="M10 4v4h4V4h-4m6 0v4h4V4h-4m0 6v4h4v-4h-4m0 6v4h4v-4h-4m-2 4v-4h-4v4h4m-6 0v-4H4v4h4m0-6v-4H4v4h4m0-6V4H4v4h4m2 6h4v-4h-4v4M4 2h16a2 2 0 0 1 2 2v16a2 2 0 0 1-2 2H4c-1.08 0-2-.9-2-2V4a2 2 0 0 1 2-2Z"
     id="path4260" />
  <path
     fill="currentColor"
     d="M 37.531877,8.4061741 40.360304,11.234601 43.188731,8.4061741 40.360304,5.577747 37.531877,8.4061741 m 4.242641,-4.2426407 2.828427,2.8284272 2.828427,-2.8284272 -2.828427,-2.8284271 -2.828427,2.8284271 m 4.242641,4.2426407 2.828427,2.8284269 2.828427,-2.8284269 -2.828427,-2.8284271 -2.828427,2.8284271 m 4.24264,4.2426409 2.828427,2.828427 2.828427,-2.828427 -2.828427,-2.8284273 -2.828427,2.8284273 m 1.414214,4.242641 -2.828427,-2.828427 -2.828427,2.828427 2.828427,2.828427 2.828427,-2.828427 m -4.242641,4.24264 -2.828427,-2.828427 -2.828427,2.828427 2.828427,2.828427 2.828427,-2.828427 m -4.242641,-4.24264 -2.828427,-2.828427 -2.828427,2.828427 2.828427,2.828427 2.828427,-2.828427 m -4.24264,-4.242641 -2.828428,-2.8284273 -2.828427,2.8284273 2.828427,2.828427 2.828428,-2.828427 m 5.656854,2.828427 2.828427,-2.828427 -2.828427,-2.8284273 -2.828427,2.8284273 2.828427,2.828427 M 31.875023,11.234601 43.188731,-0.07910724 a 2,2 0 0 1 2.828428,0 L 57.330867,11.234601 a 2,2 0 0 1 0,2.828428 L 46.017159,25.376737 c -0.763676,0.763675 -2.05061,0.777818 -2.828428,0 L 31.875023,14.063029 a 2,2 0 0 1 0,-2.828428 z"
     id="path4432" />
  <path
     style="color:#000000;fill:#000000;-inkscape-stroke:none;paint-order:fill markers stroke"
     d="M 73.741213,4.0406779 V 21.028959 a 2,2 45 0 0 2,2 h 16 a 2,2 135 0 0 2,-2 V 4.2189229 A 1.189963,1.189963 45 0 0 92.55125,3.0289599 H 74.952681 a 1.116071,1.116071 140.13417 0 0 -1.211468,1.011718 z m 2.025391,1.013672 15.974609,-0.02539 -0.0254,15.9746081 H 75.766605 Z"
     id="path6371"
     sodipodi:nodetypes="ccccccccccc"
     inkscape:original-d="m 73.741213,3.0289599 v 1.011718 18.9882811 h 20 V 3.0289599 Z m 2.025391,2.02539 15.974609,-0.02539 -0.0254,15.9746081 H 75.766605 Z"
     inkscape:path-effect="#path-effect6375" />
  <g
     id="path6476"
     transform="translate(-0.71484395)"
     style="fill:#000000">
    <path
       style="color:#000000;fill:#000000;stroke-width:2.025;stroke-linecap:round;stroke-linejoin:round;-inkscape-stroke:none;paint-order:fill markers stroke"
       d="M -10.02463,-16.223951 2.1921669,-3.8211184"
       id="path7316" />
    <path
       style="color:#000000;fill:#000000;stroke-linecap:round;stroke-linejoin:round;-inkscape-stroke:none;paint-order:fill markers stroke"
       d="m -16.250509,-14.975911 a 1.0125,1.0125 0 0 0 -0.01172,1.43164 l 12.2167982,12.4023437 a 1.0125,1.0125 0 0 0 1.4316407,0.011719 1.0125,1.0125 0 0 0 0.011719,-1.4316406 L -14.818868,-14.964193 a 1.0125,1.0125 0 0 0 -1.431641,-0.01172 z"
       id="path7318" />
  </g>
  <g
     id="g7326"
     transform="translate(3.5273441,-4.2421875)"
     style="fill:#000000">
    <path
       style="color:#000000;fill:#000000;stroke-width:2.025;stroke-linecap:round;stroke-linejoin:round;-inkscape-stroke:none;paint-order:fill markers stroke"
       d="M -10.02463,-16.223951 2.1921669,-3.8211184"
       id="path7322" />
    <path
       style="color:#000000;fill:#000000;stroke-linecap:round;stroke-linejoin:round;-inkscape-stroke:none;paint-order:fill markers stroke"
       d="m -16.250509,-14.975911 a 1.0125,1.0125 0 0 0 -0.01172,1.43164 l 12.2167982,12.4023437 a 1.0125,1.0125 0 0 0 1.4316407,0.011719 1.0125,1.0125 0 0 0 0.011719,-1.4316406 L -14.818868,-14.964193 a 1.0125,1.0125 0 0 0 -1.431641,-0.01172 z"
       id="path7324" />
  </g>
  <g
     id="g7332"
     transform="rotate(-90,-7.3469159,-9.5198774)"
     style="fill:#000000">
    <path
       style="color:#000000;fill:#000000;stroke-width:2.025;stroke-linecap:round;stroke-linejoin:round;-inkscape-stroke:none;paint-order:fill markers stroke"
       d="M -10.02463,-16.223951 2.1921669,-3.8211184"
       id="path7328" />
    <path
       style="color:#000000;fill:#000000;stroke-linecap:round;stroke-linejoin:round;-inkscape-stroke:none;paint-order:fill markers stroke"
       d="m -16.250509,-14.975911 a 1.0125,1.0125 0 0 0 -0.01172,1.43164 l 12.2167982,12.4023437 a 1.0125,1.0125 0 0 0 1.4316407,0.011719 1.0125,1.0125 0 0 0 0.011719,-1.4316406 L -14.818868,-14.964193 a 1.0125,1.0125 0 0 0 -1.431641,-0.01172 z"
       id="path7330" />
  </g>
  <g
     id="g7338"
     transform="rotate(-90,-12.20752,-9.4951699)"
     style="fill:#000000">
    <path
       style="color:#000000;fill:#000000;stroke-width:2.025;stroke-linecap:round;stroke-linejoin:round;-inkscape-stroke:none;paint-order:fill markers stroke"
       d="M -10.02463,-16.223951 2.1921669,-3.8211184"
       id="path7334" />
    <path
       style="color:#000000;fill:#000000;stroke-linecap:round;stroke-linejoin:round;-inkscape-stroke:none;paint-order:fill markers stroke"
       d="m -16.250509,-14.975911 a 1.0125,1.0125 0 0 0 -0.01172,1.43164 l 12.2167982,12.4023437 a 1.0125,1.0125 0 0 0 1.4316407,0.011719 1.0125,1.0125 0 0 0 0.011719,-1.4316406 L -14.818868,-14.964193 a 1.0125,1.0125 0 0 0 -1.431641,-0.01172 z"
       id="path7336" />
  </g>
  <path
     id="path7340"
     style="color:#000000;fill:#000000;-inkscape-stroke:none;paint-order:fill markers stroke"
     d="M 32.500488 -0.66210938 A 1.116071 1.116071 0 0 0 31.289062 0.35009766 L 31.289062 11.184082 L 31.289062 14.106445 L 31.289062 24.94043 A 1.116071 1.116071 0 0 0 32.500488 25.952637 L 43.848633 25.952637 L 45.357422 25.952637 L 56.705566 25.952637 A 1.116071 1.116071 0 0 0 57.916992 24.94043 L 57.916992 14.106445 L 57.916992 11.184082 L 57.916992 0.35009766 A 1.116071 1.116071 0 0 0 56.705566 -0.66210938 L 45.357422 -0.66210938 L 43.848633 -0.66210938 L 32.500488 -0.66210938 z M 44.603027 1.3447266 L 55.891113 1.3637695 L 55.891113 11.184082 L 55.891113 14.106445 L 55.891113 23.926758 L 44.603027 23.945801 L 33.314941 23.926758 L 33.314941 14.106445 L 33.314941 11.184082 L 33.314941 1.3637695 L 44.603027 1.3447266 z " />
  <g
     id="path7406"
     transform="matrix(1,0,0,93.889937,0,-1310.4374)"
     style="stroke-width:0.103203">
    <path
       style="color:#000000;fill:#000000;stroke-width:0.00774019;stroke-linecap:round;stroke-linejoin:round;-inkscape-stroke:none;paint-order:fill markers stroke"
       d="M 60,14.144957 H 83.953125"
       id="path7410" />
  </g>
  <path
     id="path7482"
     d="M 40.047363 -4.8823242 A 2 2 0 0 0 38.945801 -4.3212891 L 27.632812 6.9916992 A 2 2 0 0 0 27.632812 9.8203125 L 30.461426 12.648926 L 27.632812 15.477539 A 2 2 0 0 0 27.632812 18.306152 L 38.945801 29.619141 C 39.723618 30.396958 41.010739 30.382815 41.774414 29.619141 L 44.603027 26.790527 L 47.431641 29.619141 C 48.209458 30.396958 49.496579 30.382815 50.260254 29.619141 L 61.573242 18.306152 A 2 2 0 0 0 61.573242 15.477539 L 58.744629 12.648926 L 61.573242 9.8203125 A 2 2 0 0 0 61.573242 6.9916992 L 50.260254 -4.3212891 A 2 2 0 0 0 47.431641 -4.3212891 L 44.603027 -1.4926758 L 41.774414 -4.3212891 A 2 2 0 0 0 40.047363 -4.8823242 z M 40.36084 -2.9077148 L 43.189453 -0.079101562 L 40.36084 2.7495117 L 37.532227 -0.079101562 L 40.36084 -2.9077148 z M 48.845215 -2.9077148 L 51.673828 -0.079101562 L 48.845215 2.7495117 L 46.016602 -0.079101562 L 48.845215 -2.9077148 z M 36.117188 1.3344727 L 38.945801 4.1630859 L 37.532227 5.578125 L 36.117188 6.9916992 L 33.288574 4.1630859 L 36.117188 1.3344727 z M 44.603027 1.3344727 L 47.431641 4.1630859 L 44.603027 6.9916992 L 41.774414 4.1630859 L 44.603027 1.3344727 z M 53.088867 1.3344727 L 55.916016 4.1630859 L 53.088867 6.9916992 L 50.260254 4.1630859 L 53.088867 1.3344727 z M 31.875 5.578125 L 34.703613 8.4067383 L 32.935547 10.17334 L 31.875 11.233887 L 29.046387 8.4067383 L 31.875 5.578125 z M 40.36084 5.578125 L 43.189453 8.4052734 L 43.189453 8.4067383 L 40.36084 11.233887 L 37.532227 8.4067383 L 40.36084 5.578125 z M 48.845215 5.578125 L 51.673828 8.4067383 L 48.845215 11.233887 L 46.016602 8.4052734 L 48.845215 5.578125 z M 57.331055 5.578125 L 60.159668 8.4067383 L 57.331055 11.233887 L 54.502441 8.4067383 L 57.331055 5.578125 z M 36.117188 9.8203125 L 38.945801 12.648926 L 36.117188 15.477539 L 33.288574 12.648926 L 36.117188 9.8203125 z M 44.603027 9.8203125 L 47.431641 12.648926 L 44.603027 15.477539 L 41.774414 12.648926 L 44.603027 9.8203125 z M 53.088867 9.8203125 L 55.916016 12.648926 L 53.088867 15.477539 L 50.260254 12.648926 L 53.088867 9.8203125 z M 31.875 14.0625 L 34.703613 16.891113 L 31.875 19.719727 L 29.046387 16.891113 L 31.875 14.0625 z M 40.359375 14.0625 L 40.36084 14.0625 L 43.189453 16.892578 L 40.36084 19.719727 L 37.532227 16.891113 L 40.359375 14.0625 z M 48.845215 14.0625 L 48.84668 14.0625 L 51.673828 16.891113 L 48.845215 19.719727 L 46.016602 16.892578 L 46.016602 16.891113 L 48.845215 14.0625 z M 57.331055 14.0625 L 60.159668 16.891113 L 57.331055 19.719727 L 54.502441 16.891113 L 57.331055 14.0625 z M 36.117188 18.306152 L 38.945801 21.134766 L 36.117188 23.961914 L 33.288574 21.134766 L 36.117188 18.306152 z M 44.603027 18.306152 L 47.431641 21.134766 L 44.603027 23.961914 L 41.774414 21.134766 L 44.603027 18.306152 z M 53.088867 18.306152 L 55.916016 21.134766 L 53.088867 23.961914 L 50.260254 21.134766 L 53.088867 18.306152 z M 40.36084 22.54834 L 43.189453 25.376953 L 40.36084 28.205566 L 37.532227 25.376953 L 40.36084 22.54834 z M 48.845215 22.54834 L 51.673828 25.376953 L 48.845215 28.205566 L 46.016602 25.376953 L 48.845215 22.54834 z " />
  <path
     id="path7491"
     d="m 79.397463,-4.8824062 a 2,2 0 0 0 -1.101562,0.5610351 l -3.659181,3.65917967 h 2.828614 l 2.245605,-2.24560537 2.245606,2.24560537 h 1.242188 1.508788 1.242187 l 2.245606,-2.24560537 2.245605,2.24560537 h 2.828614 l -3.65918,-3.65917967 a 2,2 0 0 0 -2.828613,0 l -2.828614,2.8286133 -2.828613,-2.8286133 a 2,2 0 0 0 -1.72705,-0.5610351 z m 4.54541,6.2270508 -2.831543,0.00439 -1.40039,1.4003906 -1.395997,-1.3959916 -2.822754,0.00586 2.803712,2.8037109 -1.413574,1.4150391 -1.41504,1.4135742 -2.802246,-2.8022461 V 7.017984 l 1.388672,1.388672 -1.388672,1.387207 V 11.184 12.622477 l 2.802246,-2.802247 2.828614,2.828614 -2.828614,2.828613 -2.802246,-2.802246 v 1.431152 1.395996 l 1.388672,1.388672 -1.388672,1.388672 v 2.828613 l 2.802246,-2.802246 2.828614,2.828614 -2.797852,2.796386 2.824219,0.0059 1.388671,-1.388672 1.393066,1.393066 2.833009,0.0044 -2.8125,-2.811035 2.828613,-2.828614 2.828614,2.828614 -2.8125,2.811035 2.833007,-0.0044 1.393067,-1.393066 1.388672,1.388672 2.824218,-0.0059 -2.797851,-2.796386 2.828613,-2.828614 2.802246,2.803711 v -2.830078 l -1.388672,-1.388672 1.388672,-1.388672 v -1.395996 -1.432617 l -2.802246,2.803711 -2.828613,-2.828613 2.828613,-2.828614 2.802246,2.803711 V 11.184 9.795328 L 93.852541,8.406656 95.241213,7.017984 V 4.1879063 L 92.438966,6.9916172 89.610354,4.1630039 92.414064,1.359293 89.59131,1.353433 88.195314,2.7494291 86.794924,1.3490385 83.96338,1.3446485 86.781741,4.1630078 83.953126,6.9916211 81.124514,4.1630078 Z m -8.500488,0.014648 -2.777344,0.00439 v 2.7729493 z m 17.021485,0 2.777343,2.7788086 V 1.3636875 Z m -21.824709,1.9760742 -3.65625,3.65625 a 2,2 0 0 0 0,2.8286132 l 2.828615,2.828614 -2.828615,2.828613 a 2,2 0 0 0 0,2.828613 l 3.65625,3.65625 v -2.828613 l -2.242674,-2.242676 2.242674,-2.242675 V 14.106363 11.184 10.647867 L 68.396487,8.406656 70.639161,6.1639805 Z m 26.62793,0 v 2.8286133 l 2.242678,2.2426759 -2.242678,2.241211 v 0.536133 2.922363 0.541993 l 2.242678,2.242675 -2.242678,2.242676 v 2.828613 l 3.656249,-3.65625 a 2,2 0 0 0 0,-2.828613 L 98.094729,12.648844 100.92334,9.82023 a 2,2 0 0 0 0,-2.8286132 z M 79.710939,5.578043 82.539553,8.405191 v 0.0015 l -2.828614,2.827154 -2.828612,-2.827149 z m 8.484375,0 2.828614,2.828613 -2.828614,2.827149 -2.828612,-2.828614 z m -4.242188,4.242187 2.828615,2.828614 -2.828615,2.828613 -2.828612,-2.828613 z m -4.243652,4.242188 h 0.0015 l 2.828614,2.830078 -2.828614,2.827149 -2.828612,-2.828614 z m 8.48584,0 h 0.0015 l 2.827148,2.828613 -2.828613,2.828614 -2.828613,-2.827149 v -0.0015 z m 7.045898,7.097168 -2.771483,2.771484 2.771483,-0.0044 z m -22.576171,0.0015 v 2.765625 l 2.771484,0.0044 z m 1.964355,4.791504 3.666504,3.666504 c 0.777816,0.777816 2.064939,0.763673 2.828614,0 l 2.828612,-2.828614 2.828615,2.828614 c 0.777816,0.777816 2.064938,0.763673 2.828613,0 l 3.666504,-3.666504 h -2.828613 l -2.252931,2.252929 -2.252929,-2.252929 h -1.234864 -1.508788 -1.234864 l -2.25293,2.252929 -2.25293,-2.252929 z" />
  <path
     id="path314"
     d="m -26.141754,52.979797 a 2,2 0 0 0 -1.101562,0.561035 L -38.556305,64.85382 a 2,2 0 0 0 0,2.828613 l 2.828614,2.828614 -2.828614,2.828613 a 2,2 0 0 0 0,2.828613 l 11.312989,11.312989 c 0.777816,0.777816 2.064939,0.763673 2.828613,0 l 1.458985,-1.458985 1.369629,-1.369629 1.413574,-1.413574 2.828613,-2.828613 1.415039,-1.413574 2.828613,-2.828614 1.413574,-1.415039 2.8286137,-2.828613 1.413574,-1.413574 0.0015,-0.0015 -1.415039,-1.413574 -2.8286137,-2.827149 0.0015,-0.0015 -1.415039,-1.413574 -2.828613,-2.828613 -1.413574,-1.415039 -0.0015,0.0015 -2.828613,-2.828614 0.0015,-0.0015 -1.413574,-1.413575 -0.0015,0.0015 -2.828614,-2.828613 a 2,2 0 0 0 -1.727086,-0.560999 z m 0.313477,1.974609 2.828613,2.828613 -2.828613,2.828614 -2.828613,-2.828614 z m -4.243652,4.242188 2.828613,2.828613 -1.413574,1.415039 -1.415039,1.413574 -2.828614,-2.828613 z m 8.48584,0 2.828613,2.828613 -2.828613,2.828613 -2.828614,-2.828613 z m -12.728028,4.243652 2.828613,2.828613 -1.768066,1.766602 -1.060547,1.060547 -2.828613,-2.827149 z m 8.48584,0 2.828613,2.827148 v 0.0015 l -2.828613,2.827114 -2.828613,-2.827149 z m 8.484375,0 2.828613,2.828613 -2.828613,2.827149 -2.828613,-2.828614 z m -12.728027,4.242187 2.828613,2.828614 -2.828613,2.828613 -2.828614,-2.828613 z m 8.48584,0 2.828613,2.828614 -2.828613,2.828613 -2.828614,-2.828613 z m 8.485839,0 2.827149,2.828614 -2.827149,2.828613 -2.828613,-2.828613 z m -21.213867,4.242188 2.828613,2.828613 -2.828613,2.828614 -2.828613,-2.828614 z m 8.484375,0 h 0.0015 l 2.828618,2.830078 -2.828613,2.827149 -2.828613,-2.828614 z m 8.48584,0 h 0.0015 l 2.827148,2.828613 -2.828613,2.828614 -2.828613,-2.827149 v -0.0015 z m -12.728027,4.243652 2.828613,2.828614 -2.828613,2.827148 -2.828614,-2.827148 z m 8.48584,0 2.828613,2.828614 -2.828613,2.827148 -2.828614,-2.827148 z m -4.242188,4.242188 2.828613,2.828613 -2.828613,2.828613 -2.828613,-2.828613 z" />
  <path
     id="path375"
     d="m -69.420583,51.982253 a 2,2 0 0 0 -1.101562,0.561035 l -11.312989,11.312988 a 2,2 0 0 0 0,2.828613 l 2.828614,2.828614 -2.828614,2.828613 a 2,2 0 0 0 0,2.828613 l 11.312989,11.312989 c 0.777817,0.777817 2.064938,0.763674 2.828613,0 l 2.828613,-2.828614 2.828614,2.828614 c 0.777817,0.777817 2.064938,0.763674 2.828613,0 l 11.312988,-11.312989 a 2,2 0 0 0 0,-2.828613 l -2.828613,-2.828613 2.828613,-2.828614 a 2,2 0 0 0 0,-2.828613 L -59.207692,52.543288 a 2,2 0 0 0 -2.828613,0 l -2.828614,2.828613 -2.828613,-2.828613 a 2,2 0 0 0 -1.727051,-0.561035 z m 0.313477,1.974609 2.828613,2.828613 -2.828613,2.828614 -2.828613,-2.828614 z m 8.484375,0 2.828613,2.828613 -2.828613,2.828614 -2.828613,-2.828614 z m -12.728027,4.242188 2.828613,2.828613 -1.413574,1.415039 -1.415039,1.413574 -2.828614,-2.828613 z m 8.485839,0 2.828614,2.828613 -2.828614,2.828613 -2.828613,-2.828613 z m 8.48584,0 2.827149,2.828613 -2.827149,2.828613 -2.828613,-2.828613 z m -21.213867,4.243652 2.828613,2.828613 -1.768066,1.766602 -1.060547,1.060547 -2.828613,-2.827149 z m 8.48584,0 2.828613,2.827148 v 0.0015 l -2.828613,2.827149 -2.828613,-2.827149 z m 8.484375,0 2.828613,2.828613 -2.828613,2.827149 -2.828613,-2.828614 z m 8.48584,0 2.828613,2.828613 -2.828613,2.827149 -2.828614,-2.827149 z m -21.213867,4.242187 2.828613,2.828614 -2.828613,2.828613 -2.828614,-2.828613 z m 8.485839,0 2.828614,2.828614 -2.828614,2.828613 -2.828613,-2.828613 z m 8.48584,0 2.827149,2.828614 -2.827149,2.828613 -2.828613,-2.828613 z m -21.213867,4.242188 2.828613,2.828613 -2.828613,2.828614 -2.828613,-2.828614 z m 8.484375,0 h 0.0015 l 2.828613,2.830078 -2.828613,2.827149 -2.828613,-2.828614 z m 8.48584,0 h 0.0015 l 2.827148,2.828613 -2.828613,2.828614 -2.828613,-2.827149 v -0.0015 z m 8.48584,0 2.828613,2.828613 -2.828613,2.828614 -2.828614,-2.828614 z m -21.213867,4.243652 2.828613,2.828614 -2.828613,2.827148 -2.828614,-2.827148 z m 8.485839,0 2.828614,2.828614 -2.828614,2.827148 -2.828613,-2.827148 z m 8.48584,0 2.827149,2.828614 -2.827149,2.827148 -2.828613,-2.827148 z m -12.728027,4.242188 2.828613,2.828613 -2.828613,2.828613 -2.828613,-2.828613 z m 8.484375,0 2.828613,2.828613 -2.828613,2.828613 -2.828613,-2.828613 z" />
  <path
     id="path377"
     style="fill:#000000"
     d="M 17.925293 47.95166 C 17.412775 47.951361 16.899146 48.14285 16.511719 48.530273 L 5.1987305 59.843262 A 2 2 0 0 0 5.1987305 62.671875 L 8.0273438 65.500488 L 5.1987305 68.329102 A 2 2 0 0 0 5.1987305 71.157715 L 16.511719 82.470703 A 2 2 0 0 0 17.613281 83.031738 A 2 2 0 0 0 17.925293 83.031738 A 2 2 0 0 0 18.237305 83.031738 A 2 2 0 0 0 19.338867 82.470703 L 30.651855 71.157715 A 2 2 0 0 0 30.651855 68.329102 L 27.823242 65.500488 L 30.651855 62.671875 A 2 2 0 0 0 30.651855 59.843262 L 19.338867 48.530273 C 18.95144 48.14285 18.437808 47.951361 17.925293 47.95166 z M 17.925293 49.945312 L 20.752441 52.772461 L 17.925293 55.599609 L 15.098145 52.772461 L 17.925293 49.945312 z M 13.683105 54.1875 L 16.511719 57.014648 L 13.683105 59.843262 L 10.854492 57.014648 L 13.683105 54.1875 z M 22.16748 54.1875 L 24.996094 57.014648 L 22.16748 59.843262 L 19.338867 57.014648 L 22.16748 54.1875 z M 9.440918 58.429688 L 12.269531 61.258301 L 9.440918 64.086914 L 6.6123047 61.258301 L 9.440918 58.429688 z M 26.409668 58.429688 L 29.238281 61.258301 L 26.409668 64.086914 L 23.581055 61.258301 L 26.409668 58.429688 z M 17.925293 58.431152 L 20.752441 61.258301 L 17.925293 64.086914 L 15.098145 61.258301 L 17.925293 58.431152 z M 13.683105 62.671875 L 16.511719 65.500488 L 13.683105 68.329102 L 10.854492 65.500488 L 13.683105 62.671875 z M 22.16748 62.671875 L 24.996094 65.500488 L 22.16748 68.329102 L 19.338867 65.500488 L 22.16748 62.671875 z M 9.440918 66.915527 L 10.501465 67.976074 L 12.269531 69.742676 L 9.440918 72.571289 L 6.6123047 69.742676 L 9.440918 66.915527 z M 26.409668 66.915527 L 29.238281 69.742676 L 26.409668 72.571289 L 23.581055 69.742676 L 25.349121 67.976074 L 26.409668 66.915527 z M 17.925293 66.916992 L 20.752441 69.742676 L 17.925293 72.569824 L 15.098145 69.742676 L 17.925293 66.916992 z M 13.683105 71.157715 L 15.098145 72.571289 L 16.511719 73.986328 L 13.683105 76.814941 L 10.854492 73.986328 L 13.683105 71.157715 z M 22.16748 71.157715 L 24.996094 73.986328 L 22.16748 76.814941 L 19.338867 73.986328 L 20.752441 72.571289 L 22.16748 71.157715 z M 17.925293 75.401367 L 20.752441 78.228516 L 17.925293 81.055664 L 15.098145 78.228516 L 17.925293 75.401367 z " />
  <path
     style="color:#000000;fill:#986a44;-inkscape-stroke:none;paint-order:fill markers stroke"
     d="m 13.941406,-21.931641 v 1.013672 7.105469 h 8.117188 v -8.119141 z m 2.023438,2.025391 h 4.070312 v 4.068359 h -4.070312 z"
     id="rect552" />
  <path
     style="color:#000000;fill:#986a44;-inkscape-stroke:none;paint-order:fill markers stroke"
     d="m 13.94043,-28.023437 v 1.011719 7.105468 h 8.11914 v -8.117187 z M 15.96582,-26 h 4.06836 v 4.070313 h -4.06836 z"
     id="rect1160" />
  <path
     style="color:#000000;fill:#986a44;-inkscape-stroke:none;paint-order:fill markers stroke"
     d="M 13.94043,-34.117187 V -33.105468 -26 h 8.11914 v -8.117187 z m 2.02539,2.023437 h 4.06836 v 4.070313 h -4.06836 z"
     id="path1170" />
  <path
     style="color:#000000;fill:#986a44;-inkscape-stroke:none;paint-order:fill markers stroke"
     d="m 13.94043,-28.023437 v 1.011719 7.105468 h 8.11914 v -8.117187 z M 15.96582,-26 h 4.06836 v 4.070313 h -4.06836 z"
     id="path1174" />
  <path
     style="color:#000000;fill:#986a44;-inkscape-stroke:none;paint-order:fill markers stroke"
     d="M 13.94043,-34.117187 V -33.105468 -26 h 8.11914 v -8.117187 z m 2.02539,2.023437 h 4.06836 v 4.070313 h -4.06836 z"
     id="path1176" />
  <g
     id="g1276"
     transform="translate(-128.61811,95.130406)"
     style="fill:#000000">
    <path
       id="path2385"
       style="color:#000000;fill:#000000;-inkscape-stroke:none;paint-order:fill markers stroke"
       d="M 16.73188 -39.762242 L 12.422309 -35.454136 L 10.991157 -34.022984 L 6.6845163 -29.714879 L 6.6830514 -29.713414 L 6.6830514 -21.095738 L 6.6830514 -12.423863 L 6.6830514 -10.069859 L 24.373969 -10.069859 L 26.323676 -10.069859 L 35.398383 -10.069859 L 35.398383 -21.094273 L 35.398383 -29.711949 L 29.657661 -35.452672 L 25.34809 -39.762242 L 21.039985 -35.454136 L 16.73188 -39.762242 z M 16.73188 -36.899937 L 19.608833 -34.022984 L 19.607368 -34.021519 L 19.607368 -34.020054 L 18.744575 -33.157261 L 18.390083 -32.804234 L 18.168891 -32.583043 L 17.210883 -31.62357 L 16.730415 -31.144566 L 13.854926 -34.022984 L 16.73188 -36.899937 z M 25.34809 -36.898472 L 28.225044 -34.020054 L 25.34809 -31.146031 L 22.472602 -34.022984 L 25.34809 -36.898472 z M 12.422309 -32.590367 L 15.300727 -29.713414 L 15.299262 -29.711949 L 12.422309 -26.836461 L 9.5453561 -29.713414 L 12.422309 -32.590367 z M 21.03852 -32.588902 L 23.915473 -29.711949 L 21.039985 -26.836461 L 18.163032 -29.713414 L 21.03852 -32.588902 z M 29.656196 -32.588902 L 32.534614 -29.711949 L 29.659126 -26.836461 L 26.782173 -29.713414 L 29.656196 -32.588902 z M 16.730415 -28.280797 L 19.607368 -25.403843 L 16.730415 -22.528355 L 13.854926 -25.405308 L 16.730415 -28.280797 z M 25.34809 -28.279332 L 28.223579 -25.403843 L 26.307563 -23.486363 L 25.34809 -22.528355 L 22.472602 -25.405308 L 25.34809 -28.279332 z M 8.6312936 -27.763707 L 10.991157 -25.405308 L 10.989692 -25.403843 L 8.6312936 -23.04398 L 8.6312936 -27.763707 z M 33.448676 -27.762242 L 33.448676 -23.04398 L 31.088813 -25.403843 L 31.090278 -25.405308 L 33.448676 -27.762242 z M 21.039985 -23.972691 L 23.915473 -21.095738 L 21.039985 -18.22025 L 18.163032 -21.095738 L 21.039985 -23.972691 z M 29.657661 -23.972691 L 32.534614 -21.095738 L 29.656196 -18.218785 L 27.527778 -20.347203 L 26.780708 -21.094273 L 26.780708 -21.095738 L 29.656196 -23.971226 L 29.657661 -23.972691 z M 12.420844 -23.971226 L 15.299262 -21.094273 L 12.422309 -18.218785 L 9.5453561 -21.095738 L 12.420844 -23.971226 z M 16.730415 -19.663121 L 19.607368 -16.786168 L 19.607368 -16.784703 L 16.73188 -13.909215 L 13.854926 -16.786168 L 16.730415 -19.663121 z M 25.34809 -19.663121 L 28.225044 -16.786168 L 25.34809 -13.909215 L 22.472602 -16.786168 L 25.34809 -19.663121 z M 8.6312936 -19.147496 L 10.991157 -16.786168 L 11.017524 -16.759801 L 8.6312936 -14.372105 L 8.6312936 -19.147496 z M 33.448676 -19.144566 L 33.448676 -14.42484 L 31.088813 -16.786168 L 33.448676 -19.144566 z M 29.70893 -15.40775 L 33.095649 -12.021031 L 26.323676 -12.021031 L 29.70893 -15.40775 z M 12.397407 -15.381383 L 12.422309 -15.355015 L 15.757758 -12.021031 L 9.0370553 -12.021031 L 12.397407 -15.381383 z M 21.039985 -15.353551 L 24.372505 -12.021031 L 17.707465 -12.021031 L 21.039985 -15.353551 z " />
  </g>
  <path
     id="path2026"
     style="color:#000000;fill:#986a44;-inkscape-stroke:none;paint-order:fill markers stroke"
     d="m -86.581397,-22.657002 v 1.010742 7.105957 h 8.1167 l -2.025879,-2.025879 h -4.067871 v -4.067871 z" />
  <path
     id="path2141"
     style="color:#000000;fill:#986a44;-inkscape-stroke:none;paint-order:fill markers stroke"
     d="m -81.64342,-11.626743 0.714702,0.714703 5.02467,5.0246701 -5.739374,5.73937445 V -3.0130219 l 2.876419,-2.876419 -2.876419,-2.8764187 z" />
</svg>
