<?xml version="1.0" encoding="UTF-8" standalone="no"?>
<svg
   fill="none"
   viewBox="0 0 12.04978 14.999995"
   stroke-width="1.5"
   stroke="currentColor"
   class="w-6 h-6"
   version="1.1"
   id="svg2967"
   sodipodi:docname="vv-blue.svg"
   inkscape:version="1.2.2 (732a01da63, 2022-12-09)"
   inkscape:export-filename="..\desing-engineering\public\vv.svg"
   inkscape:export-xdpi="176"
   inkscape:export-ydpi="176"
   width="12.04978"
   height="14.999995"
   xmlns:inkscape="http://www.inkscape.org/namespaces/inkscape"
   xmlns:sodipodi="http://sodipodi.sourceforge.net/DTD/sodipodi-0.dtd"
   xmlns="http://www.w3.org/2000/svg"
   xmlns:svg="http://www.w3.org/2000/svg">
  <defs
     id="defs2971" />
  <sodipodi:namedview
     id="namedview2969"
     pagecolor="#ffffff"
     bordercolor="#000000"
     borderopacity="0.25"
     inkscape:showpageshadow="2"
     inkscape:pageopacity="0.0"
     inkscape:pagecheckerboard="0"
     inkscape:deskcolor="#d1d1d1"
     showgrid="false"
     inkscape:zoom="11.313708"
     inkscape:cx="17.103145"
     inkscape:cy="15.026019"
     inkscape:window-width="1920"
     inkscape:window-height="1017"
     inkscape:window-x="1912"
     inkscape:window-y="-8"
     inkscape:window-maximized="1"
     inkscape:current-layer="svg2967"
     showguides="true">
    <sodipodi:guide
       position="-4.99165,-4.4465467"
       orientation="1,0"
       id="guide8366"
       inkscape:locked="false" />
    <sodipodi:guide
       position="-4.99165,-4.5645967"
       orientation="0,-1"
       id="guide9204"
       inkscape:locked="false" />
    <sodipodi:guide
       position="-6.12094,-5.9438867"
       orientation="1,0"
       id="guide10700"
       inkscape:locked="false" />
    <sodipodi:guide
       position="-3.78592,-4.5645967"
       orientation="1,0"
       id="guide10702"
       inkscape:locked="false" />
    <sodipodi:guide
       position="-4.99165,-3.2127967"
       orientation="0,-1"
       id="guide10704"
       inkscape:locked="false" />
    <sodipodi:guide
       position="-4.99165,-5.9126367"
       orientation="0,-1"
       id="guide10706"
       inkscape:locked="false" />
    <sodipodi:guide
       position="-7.05443,-4.5645967"
       orientation="1,0"
       id="guide10708"
       inkscape:locked="false" />
    <sodipodi:guide
       position="-7.81545,-2.5768467"
       orientation="0,-1"
       id="guide12616"
       inkscape:locked="false" />
    <sodipodi:guide
       position="-7.81545,-3.1400067"
       orientation="1,0"
       id="guide12624"
       inkscape:locked="false" />
    <sodipodi:guide
       position="-7.81545,-5.9126367"
       orientation="0.8660254,0.5"
       id="guide13056"
       inkscape:locked="false"
       inkscape:label=""
       inkscape:color="rgb(0,134,229)" />
    <sodipodi:guide
       position="-8.5954,-4.1818667"
       orientation="0,-1"
       id="guide13921"
       inkscape:locked="false" />
    <sodipodi:guide
       position="-8.81637,-3.0585267"
       orientation="1,0"
       id="guide13937"
       inkscape:locked="false" />
    <sodipodi:guide
       position="-6.12094,-2.9560267"
       orientation="0,-1"
       id="guide13953"
       inkscape:locked="false" />
    <sodipodi:guide
       position="-8.81636,-2.8518967"
       orientation="0,-1"
       id="guide14141"
       inkscape:locked="false" />
    <sodipodi:guide
       position="-5.00728,-3.7538367"
       orientation="0,-1"
       id="guide1812"
       inkscape:locked="false" />
    <sodipodi:guide
       position="-10.04815,-3.7538367"
       orientation="1,0"
       id="guide1820"
       inkscape:locked="false" />
    <sodipodi:guide
       position="-10.04815,-3.5069367"
       orientation="0,-1"
       id="guide1842"
       inkscape:locked="false" />
  </sodipodi:namedview>
  <path
     id="path3810"
     style="color:#000000;fill:#0ea4e9;fill-opacity:0.584098;stroke:none;stroke-width:1.58787;stroke-linecap:round;-inkscape-stroke:none;paint-order:fill markers stroke"
     inkscape:transform-center-x="2.7445444"
     inkscape:transform-center-y="-7.06411"
     d="m 0,0 5.27843,14.483116 a 0.79393527,0.79393527 0 0 0 0.0166,0.02481 0.79393527,0.79393527 0 0 0 0.091,0.152998 0.79393527,0.79393527 0 0 0 0.0786,0.105445 0.79393527,0.79393527 0 0 0 0.13852,0.101306 0.79393527,0.79393527 0 0 0 0.11579,0.0703 0.79393527,0.79393527 0 0 0 0.0331,0.02067 0.79393527,0.79393527 0 0 0 0.12819,0.01861 0.79393527,0.79393527 0 0 0 0.14473,0.02274 0.79393527,0.79393527 0 0 0 0.14472,-0.02274 0.79393527,0.79393527 0 0 0 0.12612,-0.01861 0.79393527,0.79393527 0 0 0 0.0538,-0.02481 0.79393527,0.79393527 0 0 0 0.0186,-0.0083 0.79393527,0.79393527 0 0 0 0.23363,-0.171606 0.79393527,0.79393527 0 0 0 0.0124,-0.01447 0.79393527,0.79393527 0 0 0 0.15507,-0.256376 l 0.0124,-0.03308 a 0.79393527,0.79393527 0 0 0 0,-0.0021 L 12.04978,0 H 10.35853 L 6.02496,11.894557 1.6914,0 Z m 3.0579,0 2.22053,6.09304 a 0.79393527,0.79393527 0 0 0 0.0166,0.02481 0.79393527,0.79393527 0 0 0 0.091,0.152998 0.79393527,0.79393527 0 0 0 0.0786,0.105444 0.79393527,0.79393527 0 0 0 0.13852,0.10131 0.79393527,0.79393527 0 0 0 0.11579,0.0703 0.79393527,0.79393527 0 0 0 0.0331,0.02068 0.79393527,0.79393527 0 0 0 0.12819,0.01861 0.79393527,0.79393527 0 0 0 0.14473,0.02274 0.79393527,0.79393527 0 0 0 0.14472,-0.02274 0.79393527,0.79393527 0 0 0 0.12612,-0.01861 0.79393527,0.79393527 0 0 0 0.0538,-0.02481 0.79393527,0.79393527 0 0 0 0.0186,-0.0083 0.79393527,0.79393527 0 0 0 0.23363,-0.171606 0.79393527,0.79393527 0 0 0 0.0124,-0.01447 0.79393527,0.79393527 0 0 0 0.15507,-0.254308 0.79393527,0.79393527 0 0 0 0,-0.0021 l 0.0124,-0.03308 a 0.79393527,0.79393527 0 0 0 0,-0.0021 L 8.98981,0 H 7.3027 L 6.02496,3.50448 4.74722,0 Z" />
</svg>
