<?xml version="1.0" encoding="UTF-8" standalone="no"?>
<!-- Created with Inkscape (http://www.inkscape.org/) -->

<svg
   width="257.17413mm"
   height="251.2921mm"
   viewBox="0 0 257.17413 251.2921"
   version="1.1"
   id="svg5"
   xml:space="preserve"
   xmlns="http://www.w3.org/2000/svg"
   xmlns:svg="http://www.w3.org/2000/svg"><defs
     id="defs2"><rect
       x="836.86053"
       y="509.62662"
       width="276.27127"
       height="152.88799"
       id="rect1956" /><rect
       x="836.86053"
       y="509.62662"
       width="265.26266"
       height="187.11153"
       id="rect7824" /><rect
       x="836.86053"
       y="509.62662"
       width="265.26266"
       height="187.11153"
       id="rect7838" /><rect
       x="836.86053"
       y="509.62662"
       width="276.27127"
       height="152.88799"
       id="rect7852" /><rect
       x="836.86053"
       y="509.62662"
       width="276.27127"
       height="152.88799"
       id="rect13851" /><rect
       x="836.86053"
       y="509.62662"
       width="276.27127"
       height="152.88799"
       id="rect13959" /></defs><g
     id="layer1"
     transform="translate(301.49019,368.76878)"><ellipse
       style="fill:#fffbb1;fill-opacity:1;stroke:#ffffff;stroke-width:1.76189;stroke-dasharray:none;stroke-opacity:1"
       id="ellipse1796"
       cx="-124.58582"
       cy="225.36542"
       rx="124.72915"
       ry="58.314873"
       transform="matrix(-0.50914713,0.8606795,-0.83742816,-0.54654741,0,0)" /><ellipse
       style="fill:#0284c7;fill-opacity:0.5;stroke:#ffffff;stroke-width:1.76189;stroke-dasharray:none;stroke-opacity:1"
       id="ellipse1682"
       cx="-233.55109"
       cy="175.5132"
       rx="124.72915"
       ry="58.314873"
       transform="matrix(-0.01059459,0.99994388,-0.99850777,-0.05460984,0,0)" /><ellipse
       style="fill:#fababb;fill-opacity:1;stroke:#ffffff;stroke-width:1.76189;stroke-dasharray:none;stroke-opacity:1"
       id="ellipse1794"
       cx="-305.37079"
       cy="78.901352"
       rx="124.72915"
       ry="58.314873"
       transform="matrix(0.49079677,0.87127408,-0.89203801,0.45196038,0,0)" /><text
       xml:space="preserve"
       transform="matrix(0.26458333,0,0,0.26458333,-430.64542,-470.07355)"
       id="text1954"
       style="font-style:normal;font-variant:normal;font-weight:normal;font-stretch:normal;font-size:42.6667px;font-family:Inter;-inkscape-font-specification:'Inter, Normal';font-variant-ligatures:normal;font-variant-caps:normal;font-variant-numeric:normal;font-variant-east-asian:normal;text-align:center;white-space:pre;shape-inside:url(#rect1956);shape-padding:10.729;display:inline;fill:#3d3f3f;fill-opacity:1;stroke:#3e3f40;stroke-width:0.96378;stroke-dasharray:none;stroke-opacity:1"><tspan
         x="862.26871"
         y="559.8422"
         id="tspan423">What we're
</tspan><tspan
         x="894.66274"
         y="613.17557"
         id="tspan425">Good at</tspan></text><text
       xml:space="preserve"
       transform="matrix(0.26458333,0,0,0.26458333,-520.97764,-449.90863)"
       id="text7822"
       style="font-style:normal;font-variant:normal;font-weight:normal;font-stretch:normal;font-size:42.6667px;font-family:Inter;-inkscape-font-specification:'Inter, Normal';font-variant-ligatures:normal;font-variant-caps:normal;font-variant-numeric:normal;font-variant-east-asian:normal;text-align:center;white-space:pre;shape-inside:url(#rect7824);shape-padding:10.729;display:inline;fill:#3d3f3f;fill-opacity:1;stroke:#3e3f40;stroke-width:0.96378;stroke-dasharray:none;stroke-opacity:1"><tspan
         x="877.82541"
         y="559.8422"
         id="tspan427">What the </tspan><tspan
         x="913.58305"
         y="613.17557"
         id="tspan429">world
</tspan><tspan
         x="898.977"
         y="666.50894"
         id="tspan431">NEEDS</tspan></text><text
       xml:space="preserve"
       transform="matrix(0.26458333,0,0,0.26458333,-334.8027,-443.88682)"
       id="text7836"
       style="font-style:normal;font-variant:normal;font-weight:normal;font-stretch:normal;font-size:42.6667px;font-family:Inter;-inkscape-font-specification:'Inter, Normal';font-variant-ligatures:normal;font-variant-caps:normal;font-variant-numeric:normal;font-variant-east-asian:normal;text-align:center;white-space:pre;shape-inside:url(#rect7838);shape-padding:10.729;display:inline;fill:#3d3f3f;fill-opacity:1;stroke:#3e3f40;stroke-width:0.96378;stroke-dasharray:none;stroke-opacity:1"><tspan
         x="881.49208"
         y="559.8422"
         id="tspan433">What we
</tspan><tspan
         x="921.31035"
         y="613.17557"
         id="tspan435">Love</tspan></text><path
       id="ellipse10961"
       style="fill:#b0e2ad;fill-opacity:1;stroke:#ffffff;stroke-width:1.76189;stroke-dasharray:none;stroke-opacity:1"
       d="m -198.56953,272.27834 a 124.72915,58.314873 0 0 0 73.98362,11.40182 124.72915,58.314873 0 0 0 124.37555984,-54.04938 59.426155,122.39669 58.942234 0 0 -1.92279704,-15.22876 124.72915,58.314873 0 0 0 -0.2172798,-0.58989 59.426155,122.39669 58.942234 0 0 -0.4819561,-1.01519 124.72915,58.314873 0 0 0 -3.8480479,-6.40391 59.426155,122.39669 58.942234 0 0 -131.778399,14.57491 59.426155,122.39669 58.942234 0 0 -60.1107,51.3104 z"
       transform="matrix(-0.50914713,0.8606795,-0.83742816,-0.54654741,0,0)" /><path
       id="ellipse10967"
       style="fill:#8660cb;fill-opacity:0.4;stroke:#ffffff;stroke-width:1.76189;stroke-dasharray:none;stroke-opacity:1"
       d="m -307.53671,222.42565 a 124.72915,58.314873 0 0 0 73.98567,11.40245 124.72915,58.314873 0 0 0 124.37241,-54.03489 59.426154,122.39669 58.942233 0 0 -3.32284,-18.32694 124.72915,58.314873 0 0 0 -2.78163,-4.47098 59.426154,122.39669 58.942233 0 0 -132.14343,14.12056 59.426154,122.39669 58.942233 0 0 -60.11018,51.3098 z"
       transform="matrix(-0.01059459,0.99994388,-0.99850777,-0.05460984,0,0)" /><path
       id="ellipse10902"
       style="fill:#475569;fill-opacity:0.277778;stroke:#ffffff;stroke-width:1.76189;stroke-dasharray:none;stroke-opacity:1"
       d="m -127.18272,283.63853 a 124.72915,58.314873 0 0 0 2.59681,0.0416 124.72915,58.314873 0 0 0 124.37555984,-54.04938 59.426155,122.39669 58.942234 0 0 -1.92055364,-15.22334 124.72915,58.314873 0 0 0 -0.052019,-0.14054 59.330923,122.59314 26.885522 0 0 -11.9556982,-14.5697 59.426155,122.39669 58.942234 0 0 -4.585329,-2.57834 59.330923,122.59314 26.885522 0 0 -104.4606,78.67576 59.330923,122.59314 26.885522 0 0 -3.99817,7.84391 z"
       transform="matrix(-0.50914713,0.8606795,-0.83742816,-0.54654741,1.8749998e-7,9.7916664e-7)" /><text
       xml:space="preserve"
       transform="matrix(0.26458333,0,0,0.26458333,-430.74463,-300.96405)"
       id="text7850"
       style="font-size:26.6667px;font-family:Calibri;-inkscape-font-specification:'Calibri, Normal';text-align:center;white-space:pre;shape-inside:url(#rect7852);shape-padding:10.729;display:inline;fill:#ffffff;fill-opacity:1;stroke:#3e3f40;stroke-width:0;stroke-dasharray:none;stroke-opacity:1"><tspan
         x="892.12109"
         y="576.35547"
         id="tspan439"><tspan
           style="font-weight:bold;font-size:64px;-inkscape-font-specification:'Calibri, Bold'"
           id="tspan437">IKIGAI</tspan></tspan></text><text
       xml:space="preserve"
       transform="matrix(0.26458333,0,0,0.26458333,-461.63892,-408.70734)"
       id="text13849"
       style="font-style:normal;font-variant:normal;font-weight:normal;font-stretch:normal;font-size:42.6667px;font-family:Inter;-inkscape-font-specification:'Inter, Normal';font-variant-ligatures:normal;font-variant-caps:normal;font-variant-numeric:normal;font-variant-east-asian:normal;text-align:center;white-space:pre;shape-inside:url(#rect13851);shape-padding:10.729;display:inline;fill:#3d3f3f;fill-opacity:1;stroke:#3e3f40;stroke-width:0.96378;stroke-dasharray:none;stroke-opacity:1"><tspan
         x="898.39"
         y="559.8422"
         id="tspan441">Mission</tspan></text><text
       xml:space="preserve"
       transform="matrix(0.26458333,0,0,0.26458333,-399.99266,-408.70734)"
       id="text13957"
       style="font-style:normal;font-variant:normal;font-weight:normal;font-stretch:normal;font-size:42.6667px;font-family:Inter;-inkscape-font-specification:'Inter, Normal';font-variant-ligatures:normal;font-variant-caps:normal;font-variant-numeric:normal;font-variant-east-asian:normal;text-align:center;white-space:pre;shape-inside:url(#rect13959);shape-padding:10.729;display:inline;fill:#3d3f3f;fill-opacity:1;stroke:#3e3f40;stroke-width:0.96378;stroke-dasharray:none;stroke-opacity:1"><tspan
         x="896.84451"
         y="559.8422"
         id="tspan443">Passion</tspan></text></g></svg>
